<?xml version="1.0" encoding="UTF-8" standalone="no"?>
<!-- Created with Inkscape (http://www.inkscape.org/) -->

<svg
   version="1.1"
   id="svg2"
   width="816"
   height="342"
   viewBox="0 0 816 342"
   sodipodi:docname="abb4.svg"
   inkscape:version="1.2.2 (b0a8486541, 2022-12-01)"
   xmlns:inkscape="http://www.inkscape.org/namespaces/inkscape"
   xmlns:sodipodi="http://sodipodi.sourceforge.net/DTD/sodipodi-0.dtd"
   xmlns="http://www.w3.org/2000/svg"
   xmlns:svg="http://www.w3.org/2000/svg">
  <defs
     id="defs6">
    <clipPath
       clipPathUnits="userSpaceOnUse"
       id="clipPath60">
      <path
         d="M 0,0 H 612 V 792 H 0 Z"
         id="path58" />
    </clipPath>
    <clipPath
       clipPathUnits="userSpaceOnUse"
       id="clipPath68">
      <path
         d="M 76.5015,468.387 H 526.697 v -50 H 76.5015 Z"
         id="path66" />
    </clipPath>
  </defs>
  <sodipodi:namedview
     id="namedview4"
     pagecolor="#ffffff"
     bordercolor="#000000"
     borderopacity="0.25"
     inkscape:showpageshadow="2"
     inkscape:pageopacity="0.0"
     inkscape:pagecheckerboard="0"
     inkscape:deskcolor="#d1d1d1"
     showgrid="false"
     inkscape:zoom="0.74337121"
     inkscape:cx="433.16178"
     inkscape:cy="137.88535"
     inkscape:window-width="1920"
     inkscape:window-height="1043"
     inkscape:window-x="0"
     inkscape:window-y="0"
     inkscape:window-maximized="1"
     inkscape:current-layer="g8" />
  <g
     id="g8"
     inkscape:groupmode="layer"
     inkscape:label="digitalstrategie"
     transform="matrix(1.3333333,0,0,-1.3333333,0,1056)">
    <g
       id="g54"
       transform="matrix(0.59399569,0,0,0.59399569,-29.934815,482.70786)">
      <g
         id="g56"
         clip-path="url(#clipPath60)">
        <g
           id="g62">
          <g
             id="g64" />
          <g
             id="g76">
            <g
               clip-path="url(#clipPath68)"
               opacity="0.199997"
               id="g74">
              <g
                 id="g72">
                <path
                   d="M 85.501999,419.38699 H 517.69801 v 42 H 85.501999 Z"
                   style="fill:#0070b8;fill-opacity:1;fill-rule:nonzero;stroke:none"
                   id="path70" />
              </g>
            </g>
          </g>
        </g>
      </g>
    </g>
    <text
       xml:space="preserve"
       transform="scale(1,-1)"
       style="font-variant:normal;font-weight:bold;font-stretch:normal;font-size:9.50394px;font-family:'TheSans UHH Bold Caps';-inkscape-font-specification:TheSansUHH-BoldCaps;writing-mode:lr-tb;fill:#0070b8;fill-opacity:1;fill-rule:nonzero;stroke:none;stroke-width:0.593995"
       id="text80"
       x="49.084618"
       y="-741.90674"><tspan
         x="49.084618 53.637001 59.434402 64.471474 69.166412 73.196091 77.225746 81.920685 88.269333 92.726662 97.393097 99.750061 104.19791 110.30893 115.57411 120.23103 125.01151 131.32211 137.58521 143.97186 149.73123 152.08821 155.01543 163.27434 165.6313 171.55226 174.47946 180.23886 183.12805 187.11115 192.81351 196.84317 201.53716 207.9238 210.28079 215.31786 220.01282 222.90201 226.88414 232.5865 236.19798 240.65536 245.35028"
         y="-741.90674"
         sodipodi:role="line"
         id="tspan78"
         style="stroke-width:0.593995">Exzellente Forschung im digitalen Zeitalter</tspan></text>
    <g
       id="g82"
       transform="matrix(0.59399569,0,0,0.59399569,190.0054,716.4514)">
      <path
         d="M 0,0 V -5.692 H 144.07201 L 146.92,-2.908 144.07201,0 Z"
         style="fill:#3b5058;fill-opacity:1;fill-rule:nonzero;stroke:none"
         id="path84" />
    </g>
    <g
       id="g86"
       transform="matrix(0.59399569,0,0,0.59399569,190.0054,716.4514)">
      <path
         d="M 0,0 V -5.692 H 144.07201 L 146.92,-2.908 144.07201,0 Z"
         style="fill:none;stroke:#ffffff;stroke-width:0.434;stroke-linecap:butt;stroke-linejoin:miter;stroke-miterlimit:4;stroke-dasharray:none;stroke-opacity:1"
         id="path88" />
    </g>
    <g
       id="g90"
       transform="matrix(0.59399569,0,0,0.59399569,83.83651,716.4514)">
      <path
         d="m 0,0 v -5.692 h 182.33 l 3.985,2.784 L 182.33,0 Z"
         style="fill:#96a4ac;fill-opacity:1;fill-rule:nonzero;stroke:none"
         id="path92" />
    </g>
    <g
       id="g94"
       transform="matrix(0.59399569,0,0,0.59399569,83.83651,716.4514)">
      <path
         d="m 0,0 v -5.692 h 182.33 l 3.985,2.784 L 182.33,0 Z"
         style="fill:none;stroke:#ffffff;stroke-width:0.434;stroke-linecap:butt;stroke-linejoin:miter;stroke-miterlimit:4;stroke-dasharray:none;stroke-opacity:1"
         id="path96" />
    </g>
    <text
       xml:space="preserve"
       transform="scale(1,-1)"
       style="font-variant:normal;font-weight:bold;font-stretch:normal;font-size:4.75197px;font-family:'TheSans UHH Bold Caps';-inkscape-font-specification:TheSansUHH-BoldCaps;writing-mode:lr-tb;fill:#000000;fill-opacity:1;fill-rule:nonzero;stroke:none;stroke-width:0.593995"
       id="text106"
       x="24.454163"
       y="-704.1593"><tspan
         x="24.454163 26.488003 28.574112 30.77903 32.100075 34.837204 37.042118 39.532143 42.520653 45.571419 48.308548 49.344482 52.162399 54.36731 56.857338 57.893265 59.974625 62.887589 65.377617 67.563522 69.811203 72.823463 75.812454 78.863228 81.600342 83.786247 85.919418 88.676033 91.052017 93.256447 95.077873"
         y="-704.1593"
         sodipodi:role="line"
         id="tspan98"
         style="stroke-width:0.593995">Steigerung der Forschungsexzel-</tspan><tspan
         x="24.454163 26.326435 28.531345 31.582108 33.958092 34.994022 37.983002 41.071785 43.889702 44.925632 46.959 48.807518 51.516129 54.604912 57.422829 60.335777 62.783035 64.631561 67.112076 69.198204 71.284317 73.77433 76.482956 79.006256 81.092369 82.389664 85.00798 86.31002 88.158546 90.639069 92.725166"
         y="-698.45697"
         sodipodi:role="line"
         id="tspan100"
         style="stroke-width:0.593995">lenz und Standortattraktivität </tspan><tspan
         x="24.454163 27.272072 30.261059 32.732079 34.979763 37.963993 38.999935 41.817841 43.138889 45.876019 47.177582 49.0261 51.734726 53.606995 55.797653 56.83358 60.820488 63.011131 65.097252 68.08149 70.994431 73.812347 76.016792 79.067543 80.103485 83.092484 86.181259 88.999153"
         y="-692.75458"
         sodipodi:role="line"
         id="tspan102"
         style="stroke-width:0.593995">durch digitale Methoden und </tspan><tspan
         x="24.454163 25.813225 28.844978 30.931087 33.135998 35.626034 38.443958 39.764996 41.870113 44.246098 45.604683 48.013931 49.886208 51.245262 54.296028 57.004662 59.49469 60.79673 62.645233 65.125771"
         y="-687.05225"
         sodipodi:role="line"
         id="tspan104"
         style="stroke-width:0.593995">Interdisziplinarität</tspan></text>
    <text
       xml:space="preserve"
       transform="scale(1,-1)"
       style="font-variant:normal;font-weight:normal;font-stretch:normal;font-size:4.63316px;font-family:'TheSans UHH';-inkscape-font-specification:TheSansUHH-Regular;writing-mode:lr-tb;fill:#000000;fill-opacity:1;fill-rule:nonzero;stroke:none;stroke-width:0.593995"
       id="text110"
       x="24.454163"
       y="-674.47003"><tspan
         x="24.454163 26.145264"
         y="-674.47003"
         sodipodi:role="line"
         id="tspan108"
         style="stroke-width:0.593995">1.</tspan></text>
    <text
       xml:space="preserve"
       transform="scale(1,-1)"
       style="font-variant:normal;font-weight:normal;font-stretch:normal;font-size:4.63316px;font-family:'TheSans UHH';-inkscape-font-specification:TheSansUHH-Regular;writing-mode:lr-tb;fill:#000000;fill-opacity:1;fill-rule:nonzero;stroke:none;stroke-width:0.593995"
       id="text120"
       x="33.743664"
       y="-674.47003"><tspan
         x="33.743664 36.032444 37.75135 40.16523 41.805367 44.010757 46.679459 49.348167 51.813004 52.823044 55.408363 57.757362 59.731094 60.741127 61.941109 64.558853 66.092445 68.612877 70.253021 74.3302 76.697754 78.416649 79.616653 81.59037 83.615067 86.283783 88.63279 91.301483"
         y="-674.47003"
         sodipodi:role="line"
         id="tspan112"
         style="stroke-width:0.593995">Stärkung des informatischen </tspan><tspan
         x="33.743664 36.282631 38.631645 40.271793 42.940491 44.914223 45.924259 47.124237 49.792946 52.063194 53.263191 54.305656 55.315681 57.951965 59.592102 62.260803 64.2855 66.46772 68.816742 71.485443 72.495468 74.909355 77.578056 79.551773 80.561806 83.147118 85.49614 88.164833"
         y="-668.91022"
         sodipodi:role="line"
         id="tspan114"
         style="stroke-width:0.593995">Kerns inkl. Brücken aus den </tspan><tspan
         x="33.743664 35.833221 38.247101 40.271793 42.917324 46.5868 47.786781 49.760513 51.734261 54.083267 56.751961 58.725708 60.750389 63.419098 65.786644 67.297058 69.015961 71.364975"
         y="-663.3504"
         sodipodi:role="line"
         id="tspan116"
         style="stroke-width:0.593995">Fachwissenschaften</tspan><tspan
         x="24.454163 26.780014"
         y="-656.32654"
         sodipodi:role="line"
         id="tspan118"
         style="stroke-width:0.593995">2.</tspan></text>
    <text
       xml:space="preserve"
       transform="scale(1,-1)"
       style="font-variant:normal;font-weight:normal;font-stretch:normal;font-size:20.5201px;font-family:'TheSans UHH';-inkscape-font-specification:TheSansUHH-Regular;writing-mode:lr-tb;fill:#e3000b;fill-opacity:1;fill-rule:nonzero;stroke:none;stroke-width:2.63079"
       id="text120-3"
       x="308.84665"
       y="-739.26294"><tspan
         x="308.84665 318.98367 326.59656 337.28757 344.55173 354.31924 366.13889 377.9585 388.87518 393.3486 404.79889 415.20242 423.94406 428.41751 433.73209 445.32608 452.11832 463.28113 470.54526 488.603 499.08875 506.70172 512.01648 520.758 529.7254 541.54486 551.94855 563.76819"
         y="-739.26294"
         sodipodi:role="line"
         id="tspan112-6"
         style="fill:#e3000b;fill-opacity:1;stroke-width:2.63079">Stärkung des informatischen </tspan><tspan
         x="308.84665 320.09164 330.49536 337.75949 349.5791 358.32074 362.79407 368.10876 379.92844 389.98325 395.298 399.91504 404.38834 416.06439 423.32855 435.14804 444.11545 453.7804 464.18411 476.00357 480.47705 491.16806 502.98755 511.72919 516.20245 527.65277 538.05646 549.8761"
         y="-714.63873"
         sodipodi:role="line"
         id="tspan114-7"
         style="fill:#e3000b;fill-opacity:1;stroke-width:2.63079">Kerns inkl. Brücken aus den </tspan><tspan
         x="308.84665 318.1012 328.79221 337.75949 349.47659 365.72849 371.04324 379.78467 388.52646 398.92999 410.74966 419.49127 428.45853 440.27817 450.76392 457.45343 465.06644 475.47012"
         y="-690.01465"
         sodipodi:role="line"
         id="tspan116-5"
         style="fill:#e3000b;fill-opacity:1;stroke-width:2.63079">Fachwissenschaften</tspan><tspan
         x="308.84665"
         y="-664.3645"
         sodipodi:role="line"
         id="tspan118-3"
         style="fill:#e3000b;fill-opacity:1;stroke-width:2.63079" /></text>
    <text
       xml:space="preserve"
       style="font-size:14.1875px;font-family:sans-serif;-inkscape-font-specification:'sans-serif, Normal';fill:#000000;fill-opacity:1;stroke:none;stroke-width:1.34056;stroke-dasharray:none"
       x="24.746078"
       y="-571.00421"
       id="text1165"
       transform="scale(1,-1)"><tspan
         sodipodi:role="line"
         id="tspan1163"
         style="fill:#000000;fill-opacity:1;stroke:none;stroke-width:1.34056;stroke-dasharray:none"
         x="24.746078"
         y="-571.00421">aus: Digitalstrategie UHH.digital 2028</tspan></text>
    <text
       xml:space="preserve"
       transform="scale(1,-1)"
       style="font-variant:normal;font-weight:normal;font-stretch:normal;font-size:4.63316px;font-family:'TheSans UHH';-inkscape-font-specification:TheSansUHH-Regular;writing-mode:lr-tb;fill:#000000;fill-opacity:1;fill-rule:nonzero;stroke:none;stroke-width:0.593995"
       id="text130"
       x="33.743664"
       y="-656.32654"><tspan
         x="33.743664 36.032444 37.75135 40.16523 41.805367 44.010757 46.679459 49.348167 51.813004 52.823044 55.973595 58.308716 59.318741 63.002113 64.012146 66.713272 67.922539 68.932564 71.346451 74.015144 75.025177 77.610489 79.959503 81.599632 82.60968 83.809662 86.427399 88.146309 90.495323"
         y="-656.32654"
         sodipodi:role="line"
         id="tspan122"
         style="stroke-width:0.593995">Stärkung DS &amp; KI an der inter</tspan><tspan
         x="91.984077"
         y="-656.32794"
         id="tspan124"
         style="stroke-width:0.593995">-</tspan><tspan
         x="33.74176 36.327068 37.527058 39.50079 41.571804 42.771801 45.357101 46.557098 47.757088 50.425804 52.839684 54.414948 56.763969 59.432671 60.442703 62.777824 64.802513 67.471214 70.139931 71.339905 73.058823 74.777718 76.751442 78.470352 80.819366 82.019363 83.219353"
         y="-650.76819"
         sodipodi:role="line"
         id="tspan126"
         style="stroke-width:0.593995">disziplinären Schnittstelle</tspan><tspan
         x="24.452263 26.611317"
         y="-643.74432"
         sodipodi:role="line"
         id="tspan128"
         style="stroke-width:0.593995">3.</tspan></text>
    <text
       xml:space="preserve"
       transform="scale(1,-1)"
       style="font-variant:normal;font-weight:normal;font-stretch:normal;font-size:21.7957px;font-family:'TheSans UHH';-inkscape-font-specification:TheSansUHH-Regular;writing-mode:lr-tb;fill:#e3000b;fill-opacity:1;fill-rule:nonzero;stroke:none;stroke-width:2.79432"
       id="text130-5"
       x="310.78052"
       y="-639.94421"><tspan
         x="310.78052 321.54773 329.63382 340.98938 348.70511 359.07977 371.63416 384.18854 395.78378 400.53531 415.35635 426.34137 431.09274 448.42041 453.17178 465.87866 471.56738 476.31888 487.6745 500.2287 504.98022 517.14227 528.19269 535.9082 540.65973 546.30487 558.61945 566.70563 577.75604"
         y="-639.94421"
         sodipodi:role="line"
         id="tspan122-6"
         style="fill:#e3000b;fill-opacity:1;stroke-width:2.79432">Stärkung DS &amp; KI an der inter</tspan><tspan
         x="584.75946"
         y="-639.95087"
         id="tspan124-2"
         style="fill:#e3000b;fill-opacity:1;stroke-width:2.79432">-</tspan><tspan
         x="310.77164 322.93369 328.5788 337.86365 347.60635 353.2515 365.41336 371.05847 376.70358 389.25797 400.61356 408.02405 419.07449 431.62866 436.38022 447.36523 456.88992 469.44427 481.99866 487.64362 495.72986 503.8161 513.10095 521.18719 532.23761 537.88275 543.52783"
         y="-613.79608"
         sodipodi:role="line"
         id="tspan126-9"
         style="fill:#e3000b;fill-opacity:1;stroke-width:2.79432">disziplinären Schnittstelle</tspan><tspan
         x="310.78052"
         y="-586.55145"
         sodipodi:role="line"
         id="tspan128-1"
         style="fill:#e3000b;fill-opacity:1;stroke-width:2.79432" /></text>
    <text
       xml:space="preserve"
       transform="scale(1,-1)"
       style="font-variant:normal;font-weight:normal;font-stretch:normal;font-size:4.63316px;font-family:'TheSans UHH';-inkscape-font-specification:TheSansUHH-Regular;writing-mode:lr-tb;fill:#000000;fill-opacity:1;fill-rule:nonzero;stroke:none;stroke-width:0.593995"
       id="text138"
       x="33.74176"
       y="-643.74432"><tspan
         x="33.74176 36.049076 37.767982 40.436695 41.636677 43.906925 44.916969 46.116951 50.194145 51.204155 53.766304 56.286751 58.904495 60.623383 62.907547 65.302887 67.021797 68.03183 70.617126 72.966141 74.606285 75.616318 78.766876 79.966858 82.431709 83.631706 85.350601 87.764473 88.96447 90.164459 92.138191 93.338188"
         y="-643.74432"
         sodipodi:role="line"
         id="tspan132"
         style="stroke-width:0.593995">Ethik im Kontext der Digitalisie</tspan><tspan
         x="95.685707"
         y="-643.74579"
         id="tspan134"
         style="stroke-width:0.593995">-</tspan><tspan
         x="33.74176 35.381897 38.050606 40.719311 43.184143 44.194172 46.862892 49.531601 52.11689 53.12693 54.336182 56.953926 58.487503 61.00795 62.648094 66.725266 69.092819 70.811729 72.011726 74.532173 77.200867 79.174591 80.893501 83.242523 85.267197 87.935921 90.604607 91.804611"
         y="-638.18597"
         sodipodi:role="line"
         id="tspan136"
         style="stroke-width:0.593995">rung und Informationstechnik</tspan></text>
    <text
       xml:space="preserve"
       transform="scale(1,-1)"
       style="font-variant:normal;font-weight:bold;font-stretch:normal;font-size:4.75197px;font-family:'TheSans UHH Bold Caps';-inkscape-font-specification:TheSansUHH-BoldCaps;writing-mode:lr-tb;fill:#000000;fill-opacity:1;fill-rule:nonzero;stroke:none;stroke-width:0.593995"
       id="text144"
       x="106.46852"
       y="-704.40662"><tspan
         x="106.46852 108.50237 110.58847 112.79338 114.11443 116.85156 119.05647 121.54649 124.53502 127.58577 130.32291 131.35883 134.17674 136.38167 138.87167 139.90762 141.26668 144.35498 147.40575 150.28069 152.76596 155.24649 157.3326 158.65366 161.56659 164.61736 166.80327 169.47388 171.9639 174.67252 176.75388 178.84"
         y="-704.40662"
         sodipodi:role="line"
         id="tspan140"
         style="stroke-width:0.593995">Steigerung der Innovationskraft </tspan><tspan
         x="106.46852 109.28644 112.27542 114.74644 116.99413 119.97835 121.01428 123.7514 125.89407 128.27007 129.6291 131.83403 133.49721 135.58333 137.77397 138.80992 141.86067 144.47424 146.72192 149.70618 153.83087 156.7961 159.04378 162.02802 164.21393 166.29529 169.20822 171.69826 174.51617 176.70683"
         y="-698.70422"
         sodipodi:role="line"
         id="tspan142"
         style="stroke-width:0.593995">durch gezielte Nachwuchsförde-</tspan></text>
    <text
       xml:space="preserve"
       transform="scale(1,-1)"
       style="font-variant:normal;font-weight:bold;font-stretch:normal;font-size:4.75197px;font-family:'TheSans UHH Bold Caps';-inkscape-font-specification:TheSansUHH-BoldCaps;writing-mode:lr-tb;fill:#000000;fill-opacity:1;fill-rule:nonzero;stroke:none;stroke-width:0.593995"
       id="text148"
       x="106.46852"
       y="-693.00189"><tspan
         x="106.46852 108.95856 111.94753 114.99829 117.73543 118.77135 121.75986 124.84863 127.66655 128.66447 132.80342 135.00835 136.31038 138.39648 140.60141 143.09143 146.00439 148.84607 151.55467 153.42696 154.78554 158.16895 160.54492 161.90399 164.1089 166.59892 169.58792 172.63869 175.37581 176.34 178.93977 181.85274 184.9035"
         y="-693.00189"
         sodipodi:role="line"
         id="tspan146"
         style="stroke-width:0.593995">rung und Weiterqualifzierung von </tspan></text>
    <text
       xml:space="preserve"
       transform="scale(1,-1)"
       style="font-variant:normal;font-weight:bold;font-stretch:normal;font-size:4.75197px;font-family:'TheSans UHH Bold Caps';-inkscape-font-specification:TheSansUHH-BoldCaps;writing-mode:lr-tb;fill:#000000;fill-opacity:1;fill-rule:nonzero;stroke:none;stroke-width:0.593995"
       id="text152"
       x="106.46852"
       y="-687.2995"><tspan
         x="106.46852 108.54988 111.46284 113.95287 116.13876 118.38644 121.40822 123.61311 126.7019 129.51982 131.72473"
         y="-687.2995"
         sodipodi:role="line"
         id="tspan150"
         style="stroke-width:0.593995">Forschenden</tspan></text>
    <text
       xml:space="preserve"
       transform="scale(1,-1)"
       style="font-variant:normal;font-weight:normal;font-stretch:normal;font-size:4.63316px;font-family:'TheSans UHH';-inkscape-font-specification:TheSansUHH-Regular;writing-mode:lr-tb;fill:#000000;fill-opacity:1;fill-rule:nonzero;stroke:none;stroke-width:0.593995"
       id="text156"
       x="106.46852"
       y="-674.71735"><tspan
         x="106.46852 108.15963"
         y="-674.71735"
         sodipodi:role="line"
         id="tspan154"
         style="stroke-width:0.593995">1.</tspan></text>
    <text
       xml:space="preserve"
       transform="scale(1,-1)"
       style="font-variant:normal;font-weight:normal;font-stretch:normal;font-size:4.63316px;font-family:'TheSans UHH';-inkscape-font-specification:TheSansUHH-Regular;writing-mode:lr-tb;fill:#000000;fill-opacity:1;fill-rule:nonzero;stroke:none;stroke-width:0.593995"
       id="text164"
       x="115.75801"
       y="-674.71735"><tspan
         x="115.75801 118.13947 119.33945 121.78575 124.13477 126.80347 129.15248 130.16251 133.37793 135.79182 137.8165 140.46205 144.13152 146.80022 148.82491 151.49361 153.46735 154.99165 157.53989 158.73988 161.32518 163.67419 164.87421 166.0742 168.74289 171.0919 173.06563 174.07565 176.74437 179.41307 181.99838"
         y="-674.71735"
         sodipodi:role="line"
         id="tspan158"
         style="stroke-width:0.593995">Eigene Nachwuchs-Pipelines und </tspan><tspan
         x="115.75801 118.20432 120.54407 122.6151 123.81508 126.16409 127.36409 129.08298 131.43199 132.44205 134.96248 137.31148 139.58174 141.22188 143.89059 145.60948 146.80949 149.15851 150.79865 153.46735 156.13605 158.60089 160.57462 162.09892 164.07266 165.79156 167.33858 169.70659 171.42551 173.77452 176.23935 177.43935 179.78836"
         y="-669.15753"
         sodipodi:role="line"
         id="tspan160"
         style="stroke-width:0.593995">gezielte Rekrutierungs-strategien</tspan><tspan
         x="106.46852 108.79436"
         y="-662.13367"
         sodipodi:role="line"
         id="tspan162"
         style="stroke-width:0.593995">2.</tspan></text>
    <text
       xml:space="preserve"
       transform="scale(1,-1)"
       style="font-variant:normal;font-weight:normal;font-stretch:normal;font-size:4.63316px;font-family:'TheSans UHH';-inkscape-font-specification:TheSansUHH-Regular;writing-mode:lr-tb;fill:#000000;fill-opacity:1;fill-rule:nonzero;stroke:none;stroke-width:0.593995"
       id="text170"
       x="115.75801"
       y="-662.13367"><tspan
         x="115.75801 119.89542 122.41586 124.13477 125.33475 127.57259 128.77257 131.12158 132.69685 135.04587 137.71458 140.29988 142.6489 143.65892 146.2345 148.64839 151.31709 155.39429 157.7433 160.412 162.99731 165.34631 167.93163 169.13161 171.80032 174.26515 176.93387 179.60257 182.04887 184.39789"
         y="-662.13367"
         sodipodi:role="line"
         id="tspan166"
         style="stroke-width:0.593995">Motivierende Rahmenbedingungen</tspan><tspan
         x="106.46852 108.62756"
         y="-655.10974"
         sodipodi:role="line"
         id="tspan168"
         style="stroke-width:0.593995">3.</tspan></text>
    <text
       xml:space="preserve"
       transform="scale(1,-1)"
       style="font-variant:normal;font-weight:normal;font-stretch:normal;font-size:4.63316px;font-family:'TheSans UHH';-inkscape-font-specification:TheSansUHH-Regular;writing-mode:lr-tb;fill:#000000;fill-opacity:1;fill-rule:nonzero;stroke:none;stroke-width:0.593995"
       id="text174"
       x="115.75801"
       y="-655.10974"><tspan
         x="115.75801 119.04294 121.71162 124.12549 125.32549 126.52548 129.25441 131.32544 132.52544 134.87444 136.51459 139.18329 141.85201 144.31685 146.29057 147.81488 148.82491 151.49361 154.16232 156.74762 157.67426 161.91824 164.26726 165.46725 167.18614 169.53516 171.17531 173.7606 174.9606"
         y="-655.10974"
         sodipodi:role="line"
         id="tspan172"
         style="stroke-width:0.593995">Qualifzierungs- und Weiterbil</tspan></text>
    <text
       xml:space="preserve"
       transform="scale(1,-1)"
       style="font-variant:normal;font-weight:normal;font-stretch:normal;font-size:4.63316px;font-family:'TheSans UHH';-inkscape-font-specification:TheSansUHH-Regular;writing-mode:lr-tb;fill:#000000;fill-opacity:1;fill-rule:nonzero;stroke:none;stroke-width:0.593995"
       id="text180"
       x="176.15744"
       y="-655.11267"><tspan
         x="176.15744"
         y="-655.11267"
         id="tspan176"
         style="stroke-width:0.593995">-</tspan><tspan
         x="115.7561 118.34142 121.01012 123.67882 126.14368 128.11739 130.70271 133.22313 134.94623 136.66512 138.1987 140.71913 141.91913 143.11911"
         y="-649.55286"
         sodipodi:role="line"
         id="tspan178"
         style="stroke-width:0.593995">dungsportfolio</tspan></text>
    <text
       xml:space="preserve"
       transform="scale(1,-1)"
       style="font-variant:normal;font-weight:bold;font-stretch:normal;font-size:4.75197px;font-family:'TheSans UHH Bold Caps';-inkscape-font-specification:TheSansUHH-BoldCaps;writing-mode:lr-tb;fill:#000000;fill-opacity:1;fill-rule:nonzero;stroke:none;stroke-width:0.593995"
       id="text190"
       x="194.72885"
       y="-704.40662"><tspan
         x="194.72885 197.6418 200.05106 202.13716 203.45819 207.44511 208.80417 211.00859 213.49864 216.48764 219.53839 222.27553 223.31143 226.12936 228.33426 230.82428 231.86021 234.35028 237.05888 240.04309 244.03 246.23447 249.32321 251.97958 254.18448 257.00238 258.36148 261.41223"
         y="-704.40662"
         sodipodi:role="line"
         id="tspan182"
         style="stroke-width:0.593995">Optimierung der Rahmenbedin-</tspan><tspan
         x="194.72885 197.46597 200.45496 203.50572 206.24284 208.44777 211.49854 212.53447 214.59634 217.58534 220.07535 221.1113 223.9292 225.28824 227.47891 228.51485 230.59619 233.50916 235.99918 238.18509 240.43277 243.44504 246.43402 249.4848 252.22195 253.25784 256.07578 259.0643 261.53531 263.78299 266.76721"
         y="-698.70422"
         sodipodi:role="line"
         id="tspan184"
         style="stroke-width:0.593995">gungen für die Forschung durch </tspan><tspan
         x="194.72885 197.38519 199.59012 202.30348 205.0121 207.50212 209.54547 211.73138 214.46849 216.67296 219.16298 221.32512 223.57281 226.53804 228.62415 230.81479 231.85072 234.25998 236.75 239.59119 241.96719 244.15784 246.34375 248.52966 250.72031 251.75623 255.13013"
         y="-693.00189"
         sodipodi:role="line"
         id="tspan186"
         style="stroke-width:0.593995">bedarfsgerechte Prozesse &amp; </tspan><tspan
         x="194.72885 196.08791 199.17668 201.25804 203.74808 206.43294 208.46678 210.55289 213.04291 216.03143 218.55472 220.62183 223.61081 226.10083 228.30577"
         y="-687.2995"
         sodipodi:role="line"
         id="tspan188"
         style="stroke-width:0.593995">Infrastrukturen</tspan></text>
    <text
       xml:space="preserve"
       transform="scale(1,-1)"
       style="font-variant:normal;font-weight:normal;font-stretch:normal;font-size:4.63316px;font-family:'TheSans UHH';-inkscape-font-specification:TheSansUHH-Regular;writing-mode:lr-tb;fill:#000000;fill-opacity:1;fill-rule:nonzero;stroke:none;stroke-width:0.593995"
       id="text194"
       x="194.72885"
       y="-675.01416"><tspan
         x="194.72885 196.41995"
         y="-675.01416"
         sodipodi:role="line"
         id="tspan192"
         style="stroke-width:0.593995">1.</tspan></text>
    <text
       xml:space="preserve"
       transform="scale(1,-1)"
       style="font-variant:normal;font-weight:normal;font-stretch:normal;font-size:4.63316px;font-family:'TheSans UHH';-inkscape-font-specification:TheSansUHH-Regular;writing-mode:lr-tb;fill:#000000;fill-opacity:1;fill-rule:nonzero;stroke:none;stroke-width:0.593995"
       id="text198"
       x="204.01834"
       y="-675.01416"><tspan
         x="204.01834 206.65462 209.00363 211.58893 214.00282 215.72589 217.25992 219.23366 221.67998 224.02899 225.60426 227.95328 229.97797 232.59573 234.31461 236.66362 237.67368 240.82422 242.0242 244.37323 247.04193 249.01566 250.73456 253.08359 254.09363 256.7623 259.43103 262.01633"
         y="-675.01416"
         sodipodi:role="line"
         id="tspan196"
         style="stroke-width:0.593995">Bedarfsgerechte Dienste und </tspan></text>
    <text
       xml:space="preserve"
       transform="scale(1,-1)"
       style="font-variant:normal;font-weight:normal;font-stretch:normal;font-size:4.63316px;font-family:'TheSans UHH';-inkscape-font-specification:TheSansUHH-Regular;writing-mode:lr-tb;fill:#000000;fill-opacity:1;fill-rule:nonzero;stroke:none;stroke-width:0.593995"
       id="text204"
       x="204.01834"
       y="-669.45435"><tspan
         x="204.01834 205.2276 207.84534 209.46231 211.00978 213.42366 215.3974 217.11632 218.75642 221.42514 223.69539 225.41431 228.08302 229.65829 232.00731 234.67599 235.68604 237.65977 240.16629 243.83578 245.03574 247.3848 248.39481 250.74384 254.87201 256.94299 258.14297 260.492 263.10974 264.82864 267.17767"
         y="-669.45435"
         sodipodi:role="line"
         id="tspan200"
         style="stroke-width:0.593995">Infrastrukturen sowie efziente </tspan><tspan
         x="204.01834 206.68706 209.35576 211.94106 212.9511 215.30011 218.21899 220.56801 222.83826 224.55716 225.75716 227.92085 230.26987 231.27988 233.61501 236.28372 238.86905 241.45432 243.97476 245.6983 247.41721 250.00253 251.58707 254.06116 256.08121 258.43024 260.40396 262.37772"
         y="-663.89453"
         sodipodi:role="line"
         id="tspan202"
         style="stroke-width:0.593995">und efektive Supportprozesse</tspan></text>
    <text
       xml:space="preserve"
       transform="scale(1,-1)"
       style="font-variant:normal;font-weight:normal;font-stretch:normal;font-size:4.63316px;font-family:'TheSans UHH';-inkscape-font-specification:TheSansUHH-Regular;writing-mode:lr-tb;fill:#000000;fill-opacity:1;fill-rule:nonzero;stroke:none;stroke-width:0.593995"
       id="text208"
       x="194.72885"
       y="-656.87067"><tspan
         x="194.72885 197.05469"
         y="-656.87067"
         sodipodi:role="line"
         id="tspan206"
         style="stroke-width:0.593995">2.</tspan></text>
    <text
       xml:space="preserve"
       transform="scale(1,-1)"
       style="font-variant:normal;font-weight:normal;font-stretch:normal;font-size:4.63316px;font-family:'TheSans UHH';-inkscape-font-specification:TheSansUHH-Regular;writing-mode:lr-tb;fill:#000000;fill-opacity:1;fill-rule:nonzero;stroke:none;stroke-width:0.593995"
       id="text218"
       x="204.01834"
       y="-656.87067"><tspan
         x="204.01834 206.12643 208.64688 210.28702 212.26076 214.28543 216.95415 219.62283 222.29155 224.75638 226.73012 228.2776 230.6915 233.36017 237.43736 239.78638 240.79642 244.4798 245.48984 248.33456 249.9747 252.56003 254.90906 256.10904 257.82794"
         y="-656.87067"
         sodipodi:role="line"
         id="tspan210"
         style="stroke-width:0.593995">Forschungsräume &amp; Arbeits</tspan><tspan
         x="259.79868"
         y="-656.87207"
         id="tspan212"
         style="stroke-width:0.593995">-</tspan><tspan
         x="204.01645 206.60175 207.80174 210.1693 211.88818 213.90826 216.32213 218.99084 220.96458 222.93828 224.6572 227.02473 228.74365 230.46257 233.13124 235.79996"
         y="-651.31232"
         sodipodi:role="line"
         id="tspan214"
         style="stroke-width:0.593995">platzausstattung</tspan><tspan
         x="194.72694 196.886"
         y="-644.28845"
         sodipodi:role="line"
         id="tspan216"
         style="stroke-width:0.593995">3.</tspan></text>
    <text
       xml:space="preserve"
       transform="scale(1,-1)"
       style="font-variant:normal;font-weight:normal;font-stretch:normal;font-size:4.63316px;font-family:'TheSans UHH';-inkscape-font-specification:TheSansUHH-Regular;writing-mode:lr-tb;fill:#000000;fill-opacity:1;fill-rule:nonzero;stroke:none;stroke-width:0.593995"
       id="text224"
       x="204.01645"
       y="-644.28839"><tspan
         x="204.01645 206.30522 208.02414 210.43802 213.1067 215.69202 218.10591 219.69044 222.27576 224.24947 225.25951 226.8765 229.54518 231.18533 232.19537 234.81773 237.33818 241.41537 244.00064 245.20065 246.40067 248.81454 251.48322 253.47549"
         y="-644.28839"
         sodipodi:role="line"
         id="tspan220"
         style="stroke-width:0.593995">Standards für Compliance</tspan><tspan
         x="194.72694 197.25201"
         y="-637.26453"
         sodipodi:role="line"
         id="tspan222"
         style="stroke-width:0.593995">4.</tspan></text>
    <text
       xml:space="preserve"
       transform="scale(1,-1)"
       style="font-variant:normal;font-weight:normal;font-stretch:normal;font-size:4.63316px;font-family:'TheSans UHH';-inkscape-font-specification:TheSansUHH-Regular;writing-mode:lr-tb;fill:#000000;fill-opacity:1;fill-rule:nonzero;stroke:none;stroke-width:0.593995"
       id="text232"
       x="204.01645"
       y="-637.26453"><tspan
         x="204.01645 207.16699 208.36699 210.83182 212.03181 213.75073 216.16458 217.36458 218.56458 220.53831 221.73833 224.08734 225.72745 228.39616 231.06488 233.52971 234.53975 237.12503 239.47406 241.44778 242.45782 244.56592 247.08636 248.7265 250.70023 252.72495 255.39362 258.06232 260.73105 263.19589"
         y="-637.26453"
         sodipodi:role="line"
         id="tspan226"
         style="stroke-width:0.593995">Digitalisierung des Forschungs</tspan><tspan
         x="265.1683"
         y="-637.2674"
         id="tspan228"
         style="stroke-width:0.593995">-</tspan><tspan
         x="204.01645 206.60175 208.18629 210.6604 212.68045 215.02946 217.0032 218.97694 221.32596 223.29967 224.30971 225.70892 227.89577 231.04633 235.21617 236.25864 237.26868 239.45554 240.66479 242.99991"
         y="-631.7077"
         sodipodi:role="line"
         id="tspan230"
         style="stroke-width:0.593995">prozesses (FDM, FIS)</tspan></text>
    <g
       id="g234"
       transform="matrix(0.59399569,0,0,0.59399569,20.943885,716.4514)">
      <path
         d="M 0,0 V -5.692 H 137.89799 L 141.214,-2.908 137.89799,0 Z"
         style="fill:#9eb4de;fill-opacity:1;fill-rule:nonzero;stroke:none"
         id="path236" />
    </g>
    <g
       id="g238"
       transform="matrix(0.59399569,0,0,0.59399569,20.943885,716.4514)">
      <path
         d="M 0,0 V -5.692 H 137.89799 L 141.214,-2.908 137.89799,0 Z"
         style="fill:none;stroke:#ffffff;stroke-width:0.434;stroke-linecap:butt;stroke-linejoin:miter;stroke-miterlimit:4;stroke-dasharray:none;stroke-opacity:1"
         id="path240" />
    </g>
    <g
       id="g242"
       transform="matrix(0.59399569,0,0,0.59399569,102.72159,632.02994)">
      <path
         d="M 0,0 V 126.646"
         style="fill:none;stroke:#9eb4de;stroke-width:0.434;stroke-linecap:butt;stroke-linejoin:miter;stroke-miterlimit:4;stroke-dasharray:none;stroke-opacity:1"
         id="path244" />
    </g>
    <g
       id="g246"
       transform="matrix(0.59399569,0,0,0.59399569,192.307,632.02994)">
      <path
         d="M 0,0 V 126.646"
         style="fill:none;stroke:#96a4ac;stroke-width:0.434;stroke-linecap:butt;stroke-linejoin:miter;stroke-miterlimit:4;stroke-dasharray:none;stroke-opacity:1"
         id="path248" />
    </g>
    <text
       xml:space="preserve"
       transform="scale(1,-1)"
       style="font-variant:normal;font-weight:bold;font-stretch:normal;font-size:11.8799px;font-family:'TheSans UHH Bold Caps';-inkscape-font-specification:TheSansUHH-BoldCaps;writing-mode:lr-tb;fill:#000000;fill-opacity:1;fill-rule:nonzero;stroke:none;stroke-width:0.593995"
       id="text256"
       x="20.578217"
       y="-718.82587"><tspan
         x="20.578217 26.518173"
         y="-718.82587"
         sodipodi:role="line"
         id="tspan250"
         style="stroke-width:0.593995">Z1</tspan><tspan
         x="101.8606 107.80054 192.67064 198.61061"
         y="-718.43378"
         sodipodi:role="line"
         id="tspan252"
         style="stroke-width:0.593995">Z2Z3</tspan><tspan
         x="20.863342 26.803299"
         y="-610.08899"
         sodipodi:role="line"
         id="tspan254"
         style="stroke-width:0.593995">Z4</tspan></text>
    <g
       id="g258"
       transform="matrix(0.59399569,0,0,0.59399569,275.92428,624.3668)">
      <path
         d="M 0,0 V 126.646"
         style="fill:none;stroke:#3b5058;stroke-width:0.434;stroke-linecap:butt;stroke-linejoin:miter;stroke-miterlimit:4;stroke-dasharray:none;stroke-opacity:1"
         id="path260" />
    </g>
    <g
       id="g262"
       transform="matrix(0.59399569,0,0,0.59399569,190.0054,624.76883)">
      <path
         d="M 0,0 V -5.692 H 144.07201 L 146.92,-2.908 144.07201,0 Z"
         style="fill:#3b5058;fill-opacity:1;fill-rule:nonzero;stroke:none"
         id="path264" />
    </g>
    <g
       id="g266"
       transform="matrix(0.59399569,0,0,0.59399569,190.0054,624.76883)">
      <path
         d="M 0,0 V -5.692 H 144.07201 L 146.92,-2.908 144.07201,0 Z"
         style="fill:none;stroke:#ffffff;stroke-width:0.434;stroke-linecap:butt;stroke-linejoin:miter;stroke-miterlimit:4;stroke-dasharray:none;stroke-opacity:1"
         id="path268" />
    </g>
    <g
       id="g270"
       transform="matrix(0.59399569,0,0,0.59399569,83.83651,624.76883)">
      <path
         d="m 0,0 v -5.692 h 182.33 l 3.985,2.784 L 182.33,0 Z"
         style="fill:#96a4ac;fill-opacity:1;fill-rule:nonzero;stroke:none"
         id="path272" />
    </g>
    <g
       id="g274"
       transform="matrix(0.59399569,0,0,0.59399569,83.83651,624.76883)">
      <path
         d="m 0,0 v -5.692 h 182.33 l 3.985,2.784 L 182.33,0 Z"
         style="fill:none;stroke:#ffffff;stroke-width:0.434;stroke-linecap:butt;stroke-linejoin:miter;stroke-miterlimit:4;stroke-dasharray:none;stroke-opacity:1"
         id="path276" />
    </g>
    <g
       id="g278"
       transform="matrix(0.59399569,0,0,0.59399569,20.943885,624.76883)">
      <path
         d="M 0,0 V -5.692 H 137.89799 L 141.214,-2.908 137.89799,0 Z"
         style="fill:#9eb4de;fill-opacity:1;fill-rule:nonzero;stroke:none"
         id="path280" />
    </g>
    <g
       id="g282"
       transform="matrix(0.59399569,0,0,0.59399569,20.943885,624.76883)">
      <path
         d="M 0,0 V -5.692 H 137.89799 L 141.214,-2.908 137.89799,0 Z"
         style="fill:none;stroke:#ffffff;stroke-width:0.434;stroke-linecap:butt;stroke-linejoin:miter;stroke-miterlimit:4;stroke-dasharray:none;stroke-opacity:1"
         id="path284" />
    </g>
    <g
       id="g286"
       transform="matrix(0.59399569,0,0,0.59399569,21.019027,607.0147)">
      <path
         d="M 0,0 V -13.224 H 424.07599 L 430.034,-6.756 424.07599,0 Z"
         style="fill:#0f72b9;fill-opacity:1;fill-rule:nonzero;stroke:none"
         id="path288" />
    </g>
    <g
       id="g290"
       transform="matrix(0.59399569,0,0,0.59399569,21.019027,607.0147)">
      <path
         d="M 0,0 V -13.224 H 424.07599 L 430.034,-6.756 424.07599,0 Z"
         style="fill:none;stroke:#ffffff;stroke-width:0.434;stroke-linecap:butt;stroke-linejoin:miter;stroke-miterlimit:4;stroke-dasharray:none;stroke-opacity:1"
         id="path292" />
    </g>
    <text
       xml:space="preserve"
       transform="scale(1,-1)"
       style="font-variant:normal;font-weight:bold;font-stretch:normal;font-size:4.6438px;font-family:'TheSans UHH Bold Caps';-inkscape-font-specification:TheSansUHH-BoldCaps;writing-mode:lr-tb;fill:#ffffff;fill-opacity:1;fill-rule:nonzero;stroke:none;stroke-width:0.593995"
       id="text296"
       x="24.546589"
       y="-601.75525"><tspan
         x="24.546589 26.631649 29.325058 31.646954 33.801682 35.631332 37.460995 39.615711 42.578457 44.617088 46.757881 47.770218 49.804214 52.650864 55.084206 57.22036 59.416878 62.361038 65.281998 68.263313 70.938148 71.950485 74.704254 77.625214 80.039978 82.236504 85.152809 86.165169 89.183159 91.323952 93.334717 95.656616 99.701363 101.85608 104.28944 106.89925 109.04004 110.23814 111.2505 113.7117 116.55835 119.40501 121.7594 123.91412 126.34749 128.77155 130.81018 132.10115 134.9478 137.96626 140.12099 143.10231 144.3004 145.31276 146.64136 149.60408 151.64273 153.79744 156.23079 159.21211 161.63617 163.6748 164.96577 167.81242 170.79375 173.4407 175.27037 176.56136 178.69749 180.02562 182.18033 184.61369 187.53464 190.51596 193.19078 194.38889 195.3223 197.36092 199.79428 202.44122 205.42256 207.5587 209.59268 211.74742"
         y="-601.75525"
         sodipodi:role="line"
         id="tspan294"
         style="stroke-width:0.593995">Exzellente Forschung durch Netzwerke, Kooperationen, Internationalisierung, Transfer</tspan></text>
    <text
       xml:space="preserve"
       transform="matrix(0.99296606,0.11839935,0.11839935,-0.99296606,0,0)"
       style="font-variant:normal;font-weight:bold;font-stretch:normal;font-size:10.5869px;font-family:'TheSans UHH Bold Caps';-inkscape-font-specification:TheSansUHH-BoldCaps;writing-mode:lr-tb;fill:#ffffff;fill-opacity:1;fill-rule:nonzero;stroke:none;stroke-width:1.51241"
       id="text764"
       x="672.9632"
       y="-701.07129"><tspan
         x="672.9632 678.25995 681.28516 686.19629 690.36786 696.28687 699.31561 703.48535 709.76721"
         y="-701.07129"
         sodipodi:role="line"
         id="tspan762"
         style="stroke-width:1.51241">Zielbild </tspan></text>
    <path
       style="fill:none;fill-opacity:1;stroke:none;stroke-width:114.382;stroke-opacity:1"
       d="m 441.55389,637.40085 119.53584,13.86853 -0.81843,-38.8821 -120.21557,-14.7967 z"
       id="path19930" />
    <path
       style="fill:none;fill-opacity:1;stroke:#e3000b;stroke-width:2.40762;stroke-dasharray:none;stroke-opacity:1"
       d="m 30.60869,680.65607 66.04686,0.82769 0.15374,-34.16814 -66.533643,0.61396 z"
       id="path20718"
       sodipodi:nodetypes="ccccc" />
    <path
       style="fill:none;fill-opacity:1;stroke:#e3000b;stroke-width:2.01241;stroke-dasharray:none;stroke-opacity:1"
       d="m 95.26425,679.11852 204.4182,74.00599 M 467.33543,499.42419"
       id="path20722"
       sodipodi:nodetypes="cc" />
    <path
       style="fill:none;fill-opacity:1;stroke:#e3000b;stroke-width:2.01241;stroke-dasharray:none;stroke-opacity:1"
       d="M 98.32555,646.8148 302.80049,614.87393"
       id="path20722-6"
       sodipodi:nodetypes="cc" />
  </g>
</svg>
